<svg xmlns="http://www.w3.org/2000/svg" viewBox="0 -0.5 16 16" shape-rendering="crispEdges">
<metadata>Made with Pixels to Svg https://codepen.io/shshaw/pen/XbxvNj</metadata>
<path stroke="#fc7f7f" d="M1 0h14M0 1h16M0 2h2M5 2h1M10 2h1M14 2h2M0 3h2M5 3h1M10 3h1M14 3h2M0 4h2M5 4h1M10 4h1M14 4h2M0 5h16M0 6h2M5 6h1M10 6h1M14 6h2M0 7h2M5 7h1M10 7h1M14 7h2M0 8h2M5 8h1M10 8h1M14 8h2M0 9h2M5 9h1M10 9h1M14 9h2M0 10h16M0 11h2M5 11h1M10 11h1M14 11h2M0 12h2M5 12h1M10 12h1M14 12h2M0 13h2M5 13h1M10 13h1M14 13h2M0 14h16M1 15h14" />
</svg>