<svg xmlns="http://www.w3.org/2000/svg" viewBox="0 -0.5 16 16" shape-rendering="crispEdges">
<metadata>Made with Pixels to Svg https://codepen.io/shshaw/pen/XbxvNj</metadata>
<path stroke="#fc7f7f" d="M4 0h8M2 1h12M1 2h14M0 3h6M10 3h6M0 4h4M12 4h4M0 5h3M5 5h1M7 5h2M10 5h1M13 5h3M0 6h3M4 6h2M7 6h2M10 6h2M13 6h3M0 7h3M4 7h2M7 7h2M10 7h2M13 7h3M0 8h3M4 8h2M7 8h2M10 8h2M13 8h3M0 9h3M4 9h2M7 9h2M10 9h2M13 9h3M0 10h3M4 10h2M7 10h2M10 10h2M13 10h3M0 11h3M4 11h2M7 11h2M10 11h2M13 11h3M0 12h3M4 12h2M7 12h2M10 12h2M13 12h3M0 13h3M4 13h2M7 13h2M10 13h2M13 13h3M0 14h3M4 14h2M7 14h2M10 14h2M13 14h3M0 15h3M13 15h3" />
</svg>